# xmcd
#
# Track frame offsets:
#	183
#	11363
#	23850
#	35155
#	47645
#	58100
#	69208
#	82108
#	93273
#	105683
#	120040
#	127490
#	141523
#	150788
#
# Disc length: 2139 seconds
#
# Revision: 0
# Processed by: cddbd v1.4PL0 Copyright (c) Steve Scherf et al.
# Submitted via: EasyCDDAExtractor 4.6.9.1
#
DISCID=b408590e
DTITLE=Bo Diddley - The Story of Bo Diddley
DYEAR=1990
DGENRE=Blues
TTITLE0=Bo Diddley
TTITLE1=Pretty Thing
TTITLE2=Bring It To Jerome
TTITLE3=I'm A Man
TTITLE4=Mona (I Need You Baby)
TTITLE5=Diddley Daddy
TTITLE6=Dearest Darling
TTITLE7=Who Do You Love
TTITLE8=Road Runner
TTITLE9=Say Man
TTITLE10=Bo's Bounce
TTITLE11=You Cant't Judge A Book By Its Cover
TTITLE12=Crackin' Up
TTITLE13=Hey Bo Diddley
EXTD=
EXTT0=
EXTT1=
EXTT2=
EXTT3=
EXTT4=
EXTT5=
EXTT6=
EXTT7=
EXTT8=
EXTT9=
EXTT10=
EXTT11=
EXTT12=
EXTT13=
PLAYORDER=
